# xmcd
#
# Track frame offsets: 
#        150
#        22025
#        83788
#        109618
#        142503
#
# Disc length: 2411 seconds
#
# Revision: 6
# Processed by: cddbd v1.5.2PL0 Copyright (c) Steve Scherf et al.
# Submitted via: ExactAudioCopy v0.95b4
#
DISCID=30096905
DTITLE=Curtis Fuller - Jazz...It's Magic!
DYEAR=1957
DGENRE=Jazz
TTITLE0=Two Ton
TTITLE1=Medley: It's Magic - My One And Only Love - They Didn't Believ
TTITLE1=e Me
TTITLE2=Soul Station
TTITLE3=Club Car
TTITLE4=Upper Berth
EXTD=YEAR: 1957
EXTT0=
EXTT1=
EXTT2=
EXTT3=
EXTT4=
PLAYORDER=
